<svg xmlns="http://www.w3.org/2000/svg" viewBox="0 0 610.55 280.08"><defs><style>.cls-1{fill:#3c6d78;}.cls-2{fill:#3d3e3d;}</style></defs><title>Color version</title><g id="Layer_2" data-name="Layer 2"><g id="Layer_2-2" data-name="Layer 2"><path class="cls-1" d="M98.85,216.73c-10.6,11.23-48.64,45.84-63,45.84a7.46,7.46,0,0,1-7.48-7.79c0-8.73,13.09-24.95,19-31.19,9.67-10.91,18.71-15.9,32.43-19.64l36.49-38.67L69.85,169c-2.18.31-15.28.31-15.9-4.05-1.25-8.74,0-16.22,8.11-21.52,9.66-6.24,30.25-12.79,42.1-15l47.71-9c10.29-13.72,35.55-56.76,35.55-72,0-6.24-4.68-5.93-10-5.93-.63,0-2.18-1.24-25.88,2.5-35.87,5.93-71.73,15-104.78,29.31l.62.63,16.22-.31c2.18,0,5.92-.32,5.92,2.8,0,3.74-6.86,4.68-9.35,5.3L24,92.93C2.81,99.48,0,95.74,0,90.12c0-9,17.77-40.22,24-47.71C36.17,27.13,53,23.7,71.1,19.65,152.8.94,176.19,0,194.59,0c11.23,0,32.12,1.25,32.12,16.53,0,23.07-34.93,84.2-49,104.78l20.89,3.43-12.47,20c-2.49,4.06-4.37,8.11-8.42,10-6.86,3.12-18.4,4.37-25.57,5.93Z"/><path class="cls-1" d="M275.65,139.46C264,153.69,241.25,177,221.59,177c-15.26,0-22.24-17.58-22.24-30.77,0-31.55,32.33-62.33,47.85-62.33,4.39,0,11.38,1.55,11.38,7.24,0,12.93-25.61,36-36.47,43.45-2.07,10.6,1.81,16.29,13.71,16.29,13.7,0,27.15-13.7,37.5-21.2Zm-22.83-68.9c0-10.6,12.41-19.91,22.5-19.91,4.65,0,8.53,3.36,8.53,8,0,10.34-9.57,23-20.69,23C257,81.69,252.82,76.77,252.82,70.56Z"/><path class="cls-1" d="M394.65,124.88l2.07,11.38c-13.71,12.15-40.35,44-59.23,44-9.82,0-14.48-8.27-14.48-17.07,0-15.51,14-32.58,22.24-44.48l-.51-.52a205.59,205.59,0,0,0-39.83,39.57c-3.88,4.92-13.45,17.59-20.44,17.59-11.37,0-14.22-16.29-14.48-25.09-.77-17.84,15.52-44,30.52-56.64,3.36-2.84,5.69-3.1,10.09-3.1,15.51.52,14.22,4.14,14.22,5.69,0,10.09-32.59,36.21-32.59,42.41a2.87,2.87,0,0,0,2.85,2.85c1.81,0,4.14-2.33,5.17-3.62,20.69-26.38,68.28-58.19,75.78-58.19,1,0,2.59,1.29,4.14,4.91a60.53,60.53,0,0,1,3.88,14c0,10.08-31.81,29.74-31.81,47.58a4.8,4.8,0,0,0,4.65,4.66c6.21,0,17.59-9.05,22.24-12.93Z"/><path class="cls-1" d="M431.74,164.5c-4.92,3.88-21.47,17.33-27.42,17.33-7.24,0-22.24-17.07-22.76-30.52-1-32.33,66.21-65.43,96.21-66.21,11.9-.26,16.81,9.31,16.81,12.41s-6.72,5.69-9.05,6.47c4.92,2.07,7.5,4.91,7.5,10.6,0,8.28-22.5,26.38-22.5,38.54,0,4.4,3.88,6.21,8,6.21,10.86,0,25.6-13.19,36.72-20.69l2.07,9.57c-11.12,12.67-45.77,40.34-58.45,40.34-8.53,0-12.41-6.21-12.41-13.71,0-8.27,6.21-22,9.57-29l-.52-.52Zm-31.3-6.73c.26,1.3,1.3,5.95,5.18,5.18,5.17-1,13.19-.26,64.39-52l-.51-.52C407.94,129.33,400.44,145.1,400.44,157.77Z"/><path class="cls-1" d="M597.78,147.81c-14.23,14.74-38.54,40.86-60.78,40.86-18.88,0-23-18.36-23-33.62,0-27.16,11.64-56.38,28.45-77.07C565.19,49.79,589.76,25.74,598,25.74c4.39,0,5.43,6.2,5.17,9.56C601.4,59.87,594.67,82.63,538.55,137c-2.33,4.39-3.1,11.63-1.81,17.84,2.33,6,6,11.12,12.93,11.12,14.23,0,34.14-16.55,44.49-25.86Zm-53.54-34.66c18.36-17.07,34.4-41.9,39-56.64-12.67,6.21-27.41,29.49-39.57,56.12Z"/><path class="cls-2" d="M166.2,244.92c-10.83,11.66-16.81,16.71-21.55,16.71-4.13,0-9.6-9-9-12.48.62-2.89-2-3.51,30.12-38.68,1.14-1.34,3.2-3.2,3.2-5.06s-1.86-2.57-3.61-2.57c-5.88,0-25,8.35-30.43,11.65-1.86,1.14-4.64,2.48-6.91,2.48-1.13,0-4.85-1.45.52-13.41,1.44-3.3,3.3-4.34,6.18-6.6l7.12-5.57a3.7,3.7,0,0,1,2.27-1.14c.41,0,1.24.41.21,2.06l-2.89,3.31.21.2c8.45-3,16.91-6.6,26.3-6.7,3.09,0,6.19.1,8.25,2.78,1.65,2.27,3.2,7.63,3.2,10.42,0,3.4-.72,8.46-28.57,40.64-2.27,2.68-1,3.51-.11,3.82,1.24.51,18.67-14.55,43.33-42.5,2.26-2.48,6.49-9.59,11.75-9.59,2.89,0,4.54,5.05,4.54,6.7,0,1.45-2.68,5.26-3.5,6.4-4.44,6.19-23,33.93-22.9,40.12-.11.93.72,1.86,1.44,1.55,9-4.23,24.76-19.6,34-39.71a11.88,11.88,0,0,1-.52-3.82c0-3.51,6.19-10.62,7.74-10.62,2.06,0,2.79,4,2.68,5.46-.93,22.8-30.43,58.69-43.22,60.55-3.61.52-11.24-4.23-11.24-10.21,0-6.4,3.92-15.68,6-21.56l-.2-.21Z"/><path class="cls-2" d="M258.4,245.51c-6.3,7.32-17.64,17-27.86,17-7.52,0-11-6.71-11.24-13.52-.41-13.51,14.55-27.33,28-27.23,3.3,0,7.42.83,7.42,4.95,0,5.06-5.05,12.69-24.86,19.19l-.2,2.27c-.31,3.92,3.09,5.26,6.39,5.26,7.33,0,16-7.53,21.46-11.86ZM245.61,228.9c0-.72-.52-1.34-1.24-1.13-5.16,1.34-11.14,6.29-13.93,13.1C239.52,237.77,245.71,230.65,245.61,228.9Z"/><path class="cls-2" d="M264.1,239.38c-1.86,6.5.62,11.86,4.54,11.35,3.3-.52,5.16-3.3,6.91-5.37a7.1,7.1,0,0,1-1.44-4c0-6,8.25-16.09,14.34-16.09,2.47,0,3.09,2.58,3.09,4.54,0,4.33-3.2,9.08-5,12.89,4.23.83,7.63-1.44,10.93-3.81l1,3.4c-4.64,4.85-9.9,6.5-16.5,6.6-4.44,4.64-11.66,10.94-18.46,10.94s-7.64-10-7.64-15c0-13,6.09-24,14.24-33.73,8.35-10,24.55-22.59,28.88-22.59,2.06,0,3,1.86,3,3.82,0,9.38-15.27,24.86-21.87,31.25Zm3.72-10.93.2.2c21.56-21.45,23.83-27.33,25.58-31l-.2-.21C283.18,206.06,273.9,216.48,267.82,228.45Z"/><path class="cls-2" d="M376.92,201.56a84.88,84.88,0,0,0-22.18,4.85v.2h2.79c.51,0,5.57-.41,5.57,1.14,0,1.23-2.27,1.75-3.2,1.85-5.06.83-12.28,4-17.12,4-2.38,0-3.92-1.24-3.92-3.61,0-1.76,1-5.37,1.44-7.12,1.34-5.47,4.75-7.74,9.8-10a99.49,99.49,0,0,1,35.07-7.22c7.74,0,18.05,1.24,24.65,5.47,7.53,4.85,10.83,14.13,10.83,22.8,0,14.85-12.27,26.61-24.44,33.52C385.07,253.75,366.5,259,353.61,259c-2.38,0-6.81,0-8.87-1.13s-2.38-3.51-2.38-5.47c0-7.63,5.37-14.44,9.91-20.11Zm-20.43,36.92c-3.19,4.23-2.78,5.68-2.16,7,.41.62,1.65,1.75,5.88,1.86,7.12.1,16.5-2,23.72-4.44,21.66-7.63,29.19-18.57,29.19-27.64,0-13.31-21.14-13.62-30.42-14.14-.83,3.31-1.35,5-3.41,7.64Z"/><path class="cls-2" d="M453.49,239.51c-6.29,7.32-17.64,17-27.85,17-7.53,0-11-6.71-11.24-13.52-.42-13.51,14.54-27.33,28-27.23,3.3,0,7.43.83,7.43,4.95,0,5.06-5.06,12.69-24.86,19.19l-.21,2.27c-.31,3.92,3.1,5.26,6.4,5.26,7.32,0,16-7.53,21.45-11.86ZM440.7,222.9c0-.72-.52-1.34-1.24-1.13-5.16,1.34-11.14,6.29-13.92,13.1C434.61,231.77,440.8,224.65,440.7,222.9Z"/><path class="cls-2" d="M487.94,237.13l1,3.92c-6.29,6.3-17.53,15.68-25.78,15.27-6.91-.31-14.55-4.23-16.4-11.76a3.48,3.48,0,0,1-2.27,1.34,1.93,1.93,0,0,1-1.76-2c0-1.34,1.65-2.78,2.48-3.61l22.38-20.52c.21-3.41,2.17-6.71,5.88-6.71,3.1,0,3.72.93,4,3.82.41,3.92,2,7.42,2,12,0,8.46-6.81,14.75-13.42,18.78,6.61,1.13,10.63-2,15.68-5.78Zm-35.07,2.17c3.82.21,6.09,3.41,8.05,6.09,6.19-3.82,7.84-5.57,8.15-11.56-.31-2.16-.73-5-1.34-8.45Z"/><path class="cls-2" d="M516.17,242.47c-4.64,5.67-13.72,15-21.56,15-6.09,0-8.87-7-8.87-12.27,0-12.58,12.89-24.86,19.08-24.86,1.75,0,4.54.62,4.54,2.89,0,5.16-10.21,14.34-14.54,17.33-.83,4.23.72,6.5,5.46,6.5,5.47,0,10.83-5.47,15-8.46Zm-9.91-28.68c0-4.23,5-7.94,9-7.94a3.26,3.26,0,0,1,3.4,3.2c0,4.12-3.81,9.18-8.25,9.18A4.15,4.15,0,0,1,506.26,213.79Z"/><path class="cls-2" d="M542.3,238.92l-.21-.21c-3.71,4.13-14.54,13.52-20.22,13.52s-7.73-7.53-7.73-12.07c0-13.51,22.48-24.45,30.43-25.17,1.44-.1,5.46.31,5.46,2.58,0,1.85-2.06,3.3-3.4,4.23l-11.76,6.39c-6.5,3.51-14.13,6.4-13.2,13.93.1.82.72,1,1.65,1,2.89.31,9.18-2.17,13.1-6.4l11-12.17c1-1.13,2.27-2.89,3.92-2.89,2.07,0,3.92,3.51,3.92,5.27,0,1.54-1.44,3.92-2.16,5.26l-7.74,14.44.21.2,15.68-11.24.51,4.33L540,256.25c-10.83,17.23-19.91,23.83-23.93,23.83a2.36,2.36,0,0,1-2.37-2.48c0-7.43,15.67-20.42,21.35-24.55Z"/><path class="cls-2" d="M609.73,232.45l.82,4.54c-5.47,4.85-16.09,17.54-23.62,17.54-3.92,0-5.78-3.3-5.78-6.81,0-6.19,5.57-13,8.88-17.74l-.21-.21a82.73,82.73,0,0,0-15.89,15.78c-1.54,2-5.36,7-8.15,7-4.53,0-5.67-6.5-5.77-10-.31-7.12,6.19-17.53,12.17-22.59a5.14,5.14,0,0,1,4-1.24c6.19.21,5.68,1.65,5.68,2.27,0,4-13,14.44-13,16.92a1.14,1.14,0,0,0,1.13,1.13c.73,0,1.65-.92,2.07-1.44,8.25-10.52,27.23-23.21,30.22-23.21.41,0,1,.52,1.65,2a24.09,24.09,0,0,1,1.55,5.57c0,4-12.69,11.86-12.69,19a1.92,1.92,0,0,0,1.86,1.86c2.47,0,7-3.61,8.87-5.16Z"/></g></g></svg>